<?xml version="1.0" encoding="UTF-8" standalone="no"?>
<svg
   xmlns:dc="http://purl.org/dc/elements/1.1/"
   xmlns:cc="http://creativecommons.org/ns#"
   xmlns:rdf="http://www.w3.org/1999/02/22-rdf-syntax-ns#"
   xmlns:svg="http://www.w3.org/2000/svg"
   xmlns="http://www.w3.org/2000/svg"
   xmlns:sodipodi="http://sodipodi.sourceforge.net/DTD/sodipodi-0.dtd"
   xmlns:inkscape="http://www.inkscape.org/namespaces/inkscape"
   version="1.0"
   width="1600.000000pt"
   height="1600.000000pt"
   viewBox="0 0 1600.000000 1600.000000"
   preserveAspectRatio="xMidYMid meet"
   id="svg10"
   sodipodi:docname="list.svg"
   inkscape:version="0.92.3 (3ce5693, 2018-03-11)">
  <metadata
     id="metadata16">
    <rdf:RDF>
      <cc:Work
         rdf:about="">
        <dc:format>image/svg+xml</dc:format>
        <dc:type
           rdf:resource="http://purl.org/dc/dcmitype/StillImage" />
      </cc:Work>
    </rdf:RDF>
  </metadata>
  <defs
     id="defs14" />
  <sodipodi:namedview
     pagecolor="#ffffff"
     bordercolor="#666666"
     borderopacity="1"
     objecttolerance="10"
     gridtolerance="10"
     guidetolerance="10"
     inkscape:pageopacity="0"
     inkscape:pageshadow="2"
     inkscape:window-width="1301"
     inkscape:window-height="744"
     id="namedview12"
     showgrid="false"
     inkscape:zoom="0.110625"
     inkscape:cx="1066.6667"
     inkscape:cy="1066.6667"
     inkscape:window-x="65"
     inkscape:window-y="24"
     inkscape:window-maximized="1"
     inkscape:current-layer="svg10" />
  <g
     transform="translate(0.000000,1600.000000) scale(0.100000,-0.100000)"
     fill="#000000"
     stroke="none"
     id="g8">
    <path
       d="M3810 13460 l0 -320 6035 0 6035 0 0 320 0 320 -6035 0 -6035 0 0 -320z"
       id="path2" />
    <path
       d="M3810 8060 l0 -320 6033 2 6032 3 3 318 2 317 -6035 0 -6035 0 0 -320z"
       id="path4" />
    <path
       d="M3810 2670 l0 -320 6035 0 6035 0 -2 318 -3 317 -6032 3 -6033 2 0 -320z"
       id="path6" />
  </g>
</svg>
